<mxfile host="app.diagrams.net" modified="2023-12-12T13:30:11.292Z" agent="Mozilla/5.0 (Windows NT 10.0; Win64; x64) AppleWebKit/537.36 (KHTML, like Gecko) Chrome/119.0.0.0 Safari/537.36" etag="WIYwajIGFELMBw4pd_6C" version="22.1.7" type="github">
  <diagram name="Page-1" id="pI6gThgIejBDYa8vikYG">
    <mxGraphModel dx="434" dy="464" grid="1" gridSize="10" guides="1" tooltips="1" connect="1" arrows="1" fold="1" page="1" pageScale="1" pageWidth="827" pageHeight="1169" math="0" shadow="0">
      <root>
        <mxCell id="0" />
        <mxCell id="1" parent="0" />
        <mxCell id="vnWiwx-ZitC1VXT0sOXa-3" style="edgeStyle=orthogonalEdgeStyle;rounded=0;orthogonalLoop=1;jettySize=auto;html=1;exitX=0.5;exitY=1;exitDx=0;exitDy=0;" edge="1" parent="1" source="vnWiwx-ZitC1VXT0sOXa-1" target="vnWiwx-ZitC1VXT0sOXa-2">
          <mxGeometry relative="1" as="geometry" />
        </mxCell>
        <mxCell id="vnWiwx-ZitC1VXT0sOXa-1" value="Start" style="ellipse;whiteSpace=wrap;html=1;" vertex="1" parent="1">
          <mxGeometry x="354" y="70" width="120" height="80" as="geometry" />
        </mxCell>
        <mxCell id="vnWiwx-ZitC1VXT0sOXa-2" value="Command input" style="rounded=0;whiteSpace=wrap;html=1;" vertex="1" parent="1">
          <mxGeometry x="354" y="210" width="120" height="60" as="geometry" />
        </mxCell>
        <mxCell id="vnWiwx-ZitC1VXT0sOXa-6" value="" style="edgeStyle=orthogonalEdgeStyle;rounded=0;orthogonalLoop=1;jettySize=auto;html=1;" edge="1" parent="1" source="vnWiwx-ZitC1VXT0sOXa-4" target="vnWiwx-ZitC1VXT0sOXa-5">
          <mxGeometry relative="1" as="geometry" />
        </mxCell>
        <mxCell id="vnWiwx-ZitC1VXT0sOXa-4" value="execmd" style="rounded=0;whiteSpace=wrap;html=1;" vertex="1" parent="1">
          <mxGeometry x="330" y="420" width="120" height="60" as="geometry" />
        </mxCell>
        <mxCell id="vnWiwx-ZitC1VXT0sOXa-5" value="Is execve&lt;br&gt;&amp;nbsp;== -1 ?" style="rhombus;whiteSpace=wrap;html=1;rounded=0;" vertex="1" parent="1">
          <mxGeometry x="340" y="560" width="90" height="100" as="geometry" />
        </mxCell>
        <mxCell id="vnWiwx-ZitC1VXT0sOXa-11" value="&lt;font style=&quot;font-size: 10px;&quot;&gt;perror(&quot;./hsh: No such file or directory&quot;&lt;/font&gt;" style="rounded=0;whiteSpace=wrap;html=1;" vertex="1" parent="1">
          <mxGeometry x="325" y="740" width="120" height="60" as="geometry" />
        </mxCell>
        <mxCell id="vnWiwx-ZitC1VXT0sOXa-12" value="" style="endArrow=classic;html=1;rounded=0;exitX=0.5;exitY=1;exitDx=0;exitDy=0;entryX=0.5;entryY=0;entryDx=0;entryDy=0;" edge="1" parent="1" source="vnWiwx-ZitC1VXT0sOXa-5" target="vnWiwx-ZitC1VXT0sOXa-11">
          <mxGeometry relative="1" as="geometry">
            <mxPoint x="380" y="650" as="sourcePoint" />
            <mxPoint x="480" y="650" as="targetPoint" />
          </mxGeometry>
        </mxCell>
        <mxCell id="vnWiwx-ZitC1VXT0sOXa-13" value="Yes" style="edgeLabel;resizable=0;html=1;align=center;verticalAlign=middle;" connectable="0" vertex="1" parent="vnWiwx-ZitC1VXT0sOXa-12">
          <mxGeometry relative="1" as="geometry" />
        </mxCell>
        <mxCell id="vnWiwx-ZitC1VXT0sOXa-14" value="" style="endArrow=classic;html=1;rounded=0;" edge="1" parent="1">
          <mxGeometry relative="1" as="geometry">
            <mxPoint x="430" y="610" as="sourcePoint" />
            <mxPoint x="530" y="610" as="targetPoint" />
          </mxGeometry>
        </mxCell>
        <mxCell id="vnWiwx-ZitC1VXT0sOXa-15" value="No" style="edgeLabel;resizable=0;html=1;align=center;verticalAlign=middle;" connectable="0" vertex="1" parent="vnWiwx-ZitC1VXT0sOXa-14">
          <mxGeometry relative="1" as="geometry" />
        </mxCell>
        <mxCell id="vnWiwx-ZitC1VXT0sOXa-16" value="Execute command" style="rounded=0;whiteSpace=wrap;html=1;" vertex="1" parent="1">
          <mxGeometry x="530" y="580" width="120" height="60" as="geometry" />
        </mxCell>
      </root>
    </mxGraphModel>
  </diagram>
</mxfile>
